<svg id="svg" version="1.1" xmlns="http://www.w3.org/2000/svg" xmlns:xlink="http://www.w3.org/1999/xlink" width="400" height="400" viewBox="0, 0, 400,400"><g id="svgg"><path id="path0" d="M213.200 81.221 C 209.468 81.617,206.451 83.135,203.473 86.112 C 195.642 93.944,196.388 104.561,205.701 117.800 C 206.320 118.680,207.131 119.850,207.503 120.400 C 210.737 125.181,220.851 136.012,228.792 143.200 C 232.645 146.687,233.413 147.079,234.528 146.131 C 244.485 137.663,256.154 125.025,261.240 117.200 C 262.598 115.110,264.045 112.912,264.455 112.316 C 264.865 111.720,265.201 111.000,265.201 110.716 C 265.202 110.432,265.563 109.610,266.003 108.889 C 271.654 99.619,267.902 87.105,258.094 82.512 C 249.528 78.501,237.514 83.180,234.761 91.600 C 233.933 94.134,232.937 93.754,231.110 90.208 C 227.772 83.729,221.102 80.382,213.200 81.221 M160.949 172.976 C 157.461 174.494,157.772 179.858,161.437 181.390 C 163.958 182.443,303.136 182.284,305.468 181.225 C 308.737 179.741,309.094 174.600,306.037 173.019 C 304.339 172.141,162.964 172.099,160.949 172.976 M161.073 203.077 C 158.053 204.664,157.622 209.060,160.270 211.258 C 161.130 211.972,302.859 212.309,305.298 211.603 C 308.749 210.604,309.108 205.245,305.858 203.236 L 304.506 202.400 233.353 202.442 C 171.345 202.479,162.055 202.561,161.073 203.077 M161.116 233.125 C 158.731 234.084,157.774 237.752,159.312 240.035 C 160.992 242.528,158.868 242.406,198.842 242.299 L 235.484 242.200 236.642 240.835 C 238.737 238.367,238.774 236.819,236.798 234.398 L 235.658 233.000 198.729 232.925 C 178.418 232.884,161.492 232.974,161.116 233.125 M160.702 281.902 C 158.580 283.218,157.838 286.156,159.081 288.322 C 160.431 290.673,159.631 290.590,182.111 290.714 C 204.814 290.838,204.878 290.832,205.874 288.501 C 206.945 285.994,206.665 284.144,204.972 282.547 L 203.543 281.200 182.672 281.211 C 163.728 281.220,161.699 281.284,160.702 281.902 M261.646 282.454 C 258.937 284.917,259.823 289.451,263.200 290.401 C 265.564 291.067,303.732 290.923,305.361 290.242 C 308.417 288.965,309.098 284.728,306.611 282.464 L 305.221 281.200 284.111 281.212 L 263.000 281.223 261.646 282.454 M334.577 326.567 C 334.150 326.879,333.936 327.269,334.101 327.434 C 334.265 327.599,334.400 327.523,334.400 327.267 C 334.400 327.010,334.670 326.800,335.000 326.800 C 335.330 326.800,335.600 326.620,335.600 326.400 C 335.600 325.876,335.500 325.893,334.577 326.567 " stroke="none" fill="#fc5982" fill-rule="evenodd"></path><path id="path1" d="M70.400 67.393 C 70.400 68.335,70.270 68.400,68.400 68.400 C 66.533 68.400,66.400 68.467,66.400 69.400 C 66.400 70.200,66.200 70.400,65.400 70.400 C 64.662 70.400,64.400 70.612,64.400 71.213 C 64.400 71.659,64.085 72.141,63.700 72.283 C 62.455 72.743,62.412 73.218,62.406 86.835 L 62.400 100.270 78.605 100.524 C 94.473 100.773,96.800 100.646,96.800 99.536 C 96.800 99.351,97.247 99.200,97.792 99.200 C 99.204 99.200,99.272 98.625,99.127 87.897 C 99.005 78.844,98.964 78.416,98.100 77.249 C 97.605 76.580,97.200 75.677,97.200 75.242 C 97.200 73.943,96.460 72.400,95.838 72.400 C 95.518 72.400,95.198 71.995,95.128 71.500 C 95.047 70.930,94.679 70.554,94.125 70.475 C 93.579 70.398,93.202 70.021,93.125 69.475 C 93.023 68.758,92.697 68.578,91.325 68.478 C 89.951 68.378,89.627 68.199,89.525 67.478 C 89.401 66.606,89.340 66.599,79.900 66.493 L 70.400 66.386 70.400 67.393 M62.400 151.600 L 62.400 181.600 72.300 181.648 C 87.677 181.722,98.394 181.949,98.816 182.210 C 99.055 182.358,99.200 180.099,99.200 176.224 L 99.200 170.000 98.190 170.000 C 97.481 170.000,97.067 169.702,96.800 169.001 C 96.567 168.387,95.818 167.761,94.857 167.376 C 90.242 165.530,90.005 164.275,90.002 141.729 C 90.000 125.108,89.925 122.782,89.371 122.229 C 88.825 121.683,87.012 121.600,75.571 121.600 L 62.400 121.600 62.400 151.600 M80.697 199.904 L 62.394 200.008 62.497 227.304 L 62.600 254.600 63.478 254.725 C 64.199 254.827,64.378 255.151,64.478 256.525 C 64.579 257.913,64.754 258.222,65.500 258.328 C 66.203 258.428,66.400 258.716,66.400 259.647 C 66.400 260.404,66.765 261.176,67.400 261.765 C 67.950 262.275,68.400 263.064,68.400 263.518 C 68.400 264.070,68.698 264.387,69.300 264.472 C 70.046 264.578,70.221 264.887,70.322 266.280 C 70.413 267.528,70.644 268.024,71.222 268.207 C 71.650 268.343,72.000 268.802,72.000 269.227 C 72.000 269.785,72.278 270.000,73.000 270.000 C 73.800 270.000,74.000 270.200,74.000 271.000 C 74.000 271.844,74.187 272.000,75.200 272.000 C 76.009 272.000,76.400 272.199,76.400 272.610 C 76.400 274.180,81.304 274.477,81.525 272.921 C 81.631 272.179,81.944 272.023,83.525 271.921 C 85.121 271.818,85.419 271.666,85.528 270.900 C 85.607 270.344,85.933 270.000,86.381 270.000 C 87.119 270.000,87.584 268.965,87.595 267.300 C 87.598 266.686,87.840 266.400,88.357 266.400 C 89.247 266.400,89.600 265.652,89.600 263.767 C 89.600 262.667,89.756 262.400,90.400 262.400 C 90.987 262.400,91.200 262.133,91.200 261.400 C 91.200 260.600,91.400 260.400,92.200 260.400 C 93.116 260.400,93.200 260.251,93.200 258.628 C 93.200 257.095,93.321 256.838,94.100 256.728 C 94.694 256.643,95.046 256.278,95.134 255.654 C 95.208 255.133,95.604 254.619,96.016 254.512 C 96.545 254.373,96.841 253.802,97.027 252.558 C 97.228 251.219,97.465 250.800,98.021 250.800 C 99.176 250.800,99.242 249.172,99.117 223.600 L 99.000 199.800 80.697 199.904 " stroke="none" fill="#373736" fill-rule="evenodd"></path><path id="path2" d="M99.000 98.400 C 98.838 98.911,98.395 99.200,97.773 99.200 C 97.238 99.200,96.800 99.351,96.800 99.536 C 96.800 100.646,94.473 100.773,78.605 100.524 L 62.400 100.270 62.400 110.935 L 62.400 121.600 75.571 121.600 C 87.012 121.600,88.825 121.683,89.371 122.229 C 89.925 122.782,90.000 125.108,90.002 141.729 C 90.005 164.275,90.242 165.530,94.857 167.376 C 95.818 167.761,96.567 168.387,96.800 169.001 C 97.308 170.335,102.672 170.528,103.942 169.258 C 104.350 168.850,105.160 168.396,105.742 168.250 C 106.413 168.082,106.800 167.712,106.800 167.239 C 106.800 166.829,107.133 166.406,107.539 166.300 C 108.755 165.982,108.800 164.785,108.795 133.250 C 108.789 101.833,108.765 101.200,107.597 101.200 C 107.173 101.200,106.786 100.797,106.636 100.200 C 106.411 99.305,106.181 99.200,104.439 99.200 C 102.830 99.200,102.457 99.062,102.284 98.400 C 102.125 97.791,101.738 97.600,100.664 97.600 C 99.605 97.600,99.191 97.799,99.000 98.400 M62.400 190.754 L 62.400 200.008 80.700 199.904 L 99.000 199.800 99.108 191.228 C 99.168 186.514,99.059 182.499,98.868 182.308 C 98.676 182.116,90.392 181.856,80.459 181.729 L 62.400 181.500 62.400 190.754 " stroke="none" fill="#f4d84c" fill-rule="evenodd"></path><path id="path3" d="M130.000 51.148 C 130.000 51.339,129.611 51.474,129.135 51.448 C 128.660 51.422,128.187 51.650,128.084 51.956 C 127.956 52.334,128.072 52.411,128.448 52.197 C 128.894 51.943,128.904 51.986,128.500 52.421 C 128.102 52.850,128.000 78.697,128.000 178.877 L 128.000 304.794 103.100 304.897 L 78.200 305.000 78.072 305.900 C 77.980 306.551,77.676 306.800,76.972 306.800 C 76.152 306.800,76.000 306.994,76.000 308.037 C 76.000 308.717,75.640 309.731,75.200 310.291 C 74.093 311.698,74.083 314.933,75.183 315.703 C 75.844 316.166,75.985 316.810,76.083 319.826 C 76.190 323.093,76.277 323.434,77.100 323.795 C 77.826 324.113,78.000 324.512,78.000 325.851 C 78.000 327.290,78.134 327.547,79.000 327.764 C 79.714 327.943,80.000 328.286,80.000 328.961 C 80.000 329.559,80.284 329.981,80.773 330.109 C 81.337 330.256,81.581 330.729,81.673 331.856 C 81.776 333.106,81.972 333.424,82.700 333.528 C 83.351 333.620,83.600 333.924,83.600 334.628 C 83.600 335.398,83.808 335.600,84.600 335.600 C 85.411 335.600,85.600 335.797,85.600 336.644 C 85.600 337.636,85.674 337.673,87.100 337.389 C 87.925 337.224,120.190 336.980,158.800 336.845 L 229.000 336.600 231.055 335.516 C 236.370 332.713,238.527 327.395,237.195 320.376 C 234.708 307.257,234.789 307.080,243.192 307.283 C 251.082 307.473,253.150 308.551,253.780 312.802 C 254.624 318.494,255.640 321.934,257.262 324.595 C 257.666 325.258,257.998 326.037,257.999 326.327 C 257.999 326.616,258.450 327.443,259.000 328.164 C 259.550 328.886,260.000 329.640,260.000 329.841 C 260.000 330.895,269.618 340.800,270.641 340.800 C 270.901 340.800,271.218 341.070,271.345 341.400 C 271.471 341.730,271.823 342.000,272.125 342.000 C 272.428 342.000,273.193 342.444,273.825 342.987 C 274.456 343.530,275.519 344.090,276.187 344.232 C 276.854 344.373,277.670 344.718,278.000 344.997 C 278.493 345.415,279.864 346.005,280.800 346.203 C 283.834 346.844,284.523 348.099,282.214 348.779 C 281.446 349.006,286.382 349.142,295.666 349.150 L 310.332 349.163 310.932 348.248 C 311.261 347.745,311.772 347.312,312.066 347.285 C 315.476 346.976,316.718 346.439,316.150 345.519 C 316.042 345.344,316.287 345.200,316.696 345.200 C 317.105 345.200,317.682 344.975,317.979 344.700 C 318.317 344.386,318.421 344.372,318.258 344.663 C 318.086 344.970,318.270 345.054,318.809 344.914 C 319.575 344.713,319.580 344.673,318.909 344.171 C 318.266 343.689,318.289 343.662,319.163 343.883 C 319.834 344.053,320.039 343.986,319.839 343.663 C 319.646 343.351,319.952 343.200,320.776 343.200 C 321.815 343.200,322.000 343.049,322.000 342.200 C 322.000 341.452,322.211 341.200,322.837 341.200 C 323.330 341.200,323.759 340.880,323.878 340.422 C 323.990 339.995,324.461 339.590,324.924 339.522 C 325.440 339.447,325.858 339.012,326.003 338.400 C 326.154 337.756,326.516 337.400,327.019 337.399 C 327.449 337.399,327.822 337.174,327.850 336.899 C 327.878 336.625,327.923 336.220,327.950 336.000 C 327.978 335.780,328.357 335.600,328.792 335.600 C 329.300 335.600,329.673 335.247,329.832 334.616 C 329.967 334.075,330.365 333.400,330.716 333.116 C 331.247 332.687,331.297 332.694,331.015 333.162 C 330.806 333.509,330.828 333.630,331.073 333.479 C 331.291 333.344,331.494 332.564,331.525 331.746 C 331.578 330.334,332.209 329.435,332.862 329.838 C 333.027 329.941,333.357 329.302,333.595 328.419 C 333.833 327.536,334.381 326.624,334.814 326.393 C 335.450 326.052,335.600 325.550,335.600 323.762 C 335.600 322.547,335.744 321.642,335.919 321.750 C 336.095 321.858,336.500 321.786,336.819 321.588 C 337.582 321.117,337.913 52.259,337.152 51.342 C 336.625 50.707,130.000 50.514,130.000 51.148 M222.600 82.076 C 226.525 83.937,231.200 88.079,231.200 89.695 C 231.200 89.909,231.772 90.808,232.472 91.691 L 233.744 93.297 234.942 90.749 C 240.761 78.368,258.870 77.350,266.061 89.000 C 268.633 93.167,269.625 99.784,268.234 103.492 C 267.923 104.321,267.566 105.467,267.442 106.038 C 267.224 107.039,265.263 111.354,264.279 113.000 C 262.473 116.018,258.532 121.767,257.105 123.463 C 256.167 124.578,254.376 126.731,253.125 128.245 C 250.725 131.152,241.192 140.646,236.800 144.505 C 232.875 147.953,233.387 148.188,223.349 138.328 C 211.139 126.334,204.766 118.266,200.817 109.800 C 199.893 107.820,198.927 105.768,198.669 105.239 C 197.511 102.866,198.070 93.649,199.544 90.824 C 203.933 82.412,214.697 78.328,222.600 82.076 M306.448 173.092 C 308.457 174.278,308.994 179.089,307.271 180.464 C 304.973 182.299,309.206 182.193,233.693 182.304 C 163.710 182.407,162.765 182.398,161.233 181.617 C 157.533 179.729,157.114 174.808,160.494 172.932 C 162.121 172.028,304.912 172.185,306.448 173.092 M305.610 202.700 C 305.934 202.975,306.647 203.542,307.193 203.959 C 308.839 205.217,308.659 209.256,306.887 210.839 L 305.587 212.000 233.620 212.000 C 190.800 212.000,161.260 211.851,160.685 211.632 C 157.138 210.284,157.421 204.774,161.139 202.805 C 162.981 201.830,304.461 201.727,305.610 202.700 M234.504 232.657 C 239.800 233.533,239.327 241.620,233.924 242.593 C 229.698 243.355,161.656 242.598,160.557 241.777 C 157.088 239.187,157.847 233.636,161.800 232.685 C 163.000 232.396,232.764 232.370,234.504 232.657 M204.299 281.661 C 207.556 283.674,207.477 289.154,204.174 290.410 C 203.555 290.645,194.813 290.800,182.121 290.800 L 161.094 290.800 159.748 289.372 C 157.156 286.624,157.959 282.566,161.367 281.188 C 163.523 280.316,202.823 280.749,204.299 281.661 M306.288 282.010 C 308.913 283.941,309.030 288.017,306.517 289.994 C 305.519 290.779,304.942 290.800,284.140 290.800 L 262.788 290.800 261.294 289.431 C 259.175 287.489,259.120 284.746,261.159 282.642 C 262.948 280.797,261.392 280.917,284.421 280.854 L 304.642 280.800 306.288 282.010 M94.000 344.446 C 94.000 344.902,94.211 345.196,94.475 345.108 C 95.216 344.861,95.300 344.124,94.617 343.862 C 94.185 343.696,94.000 343.871,94.000 344.446 M97.309 345.990 C 97.342 346.424,97.605 346.870,97.894 346.981 C 98.290 347.133,98.322 347.002,98.023 346.444 C 97.806 346.037,97.742 345.592,97.881 345.453 C 98.020 345.314,97.935 345.200,97.692 345.200 C 97.449 345.200,97.276 345.555,97.309 345.990 " stroke="none" fill="#fbdbce" fill-rule="evenodd"></path><path id="path4" d="M213.505 81.083 C 214.002 81.179,214.722 81.175,215.105 81.075 C 215.487 80.975,215.080 80.896,214.200 80.901 C 213.320 80.905,213.007 80.987,213.505 81.083 M248.305 81.083 C 248.802 81.179,249.522 81.175,249.905 81.075 C 250.287 80.975,249.880 80.896,249.000 80.901 C 248.120 80.905,247.807 80.987,248.305 81.083 M252.100 81.076 C 252.485 81.176,253.115 81.176,253.500 81.076 C 253.885 80.975,253.570 80.893,252.800 80.893 C 252.030 80.893,251.715 80.975,252.100 81.076 M209.376 81.822 C 208.612 82.434,208.613 82.438,209.400 82.076 C 209.840 81.874,210.470 81.608,210.800 81.486 C 211.318 81.293,211.315 81.259,210.776 81.232 C 210.434 81.214,209.804 81.480,209.376 81.822 M221.200 81.800 C 221.750 82.114,222.380 82.372,222.600 82.372 C 222.820 82.372,222.550 82.114,222.000 81.800 C 221.450 81.486,220.820 81.228,220.600 81.228 C 220.380 81.228,220.650 81.486,221.200 81.800 M256.546 81.802 C 258.005 82.563,258.375 82.568,257.376 81.813 C 256.949 81.490,256.330 81.221,256.000 81.215 C 255.670 81.210,255.916 81.474,256.546 81.802 M241.744 83.169 C 241.053 83.590,240.347 84.175,240.175 84.468 C 239.990 84.782,240.177 84.734,240.631 84.350 C 241.054 83.993,241.940 83.415,242.600 83.066 C 243.260 82.717,243.620 82.425,243.400 82.418 C 243.180 82.410,242.435 82.748,241.744 83.169 M225.200 83.800 C 225.945 84.350,226.655 84.799,226.778 84.798 C 227.155 84.795,224.624 82.830,224.222 82.814 C 224.015 82.806,224.455 83.250,225.200 83.800 M204.368 84.775 C 203.361 85.639,202.042 87.033,201.438 87.873 L 200.339 89.400 201.751 87.800 C 202.528 86.920,203.937 85.530,204.882 84.712 C 205.827 83.894,206.510 83.220,206.400 83.215 C 206.290 83.209,205.376 83.912,204.368 84.775 M228.700 86.700 C 229.566 87.745,230.477 88.960,230.725 89.400 C 230.973 89.840,231.181 89.992,231.188 89.737 C 231.200 89.259,227.725 84.800,227.341 84.800 C 227.222 84.800,227.834 85.655,228.700 86.700 M237.978 86.300 L 236.600 87.800 238.100 86.422 C 239.496 85.138,239.784 84.800,239.478 84.800 C 239.412 84.800,238.737 85.475,237.978 86.300 M199.275 91.419 C 198.070 93.900,198.205 94.247,199.446 91.861 C 200.001 90.794,200.387 89.853,200.303 89.770 C 200.219 89.686,199.757 90.428,199.275 91.419 M231.545 91.000 C 232.527 93.017,234.413 94.126,234.394 92.676 C 234.390 92.347,234.285 92.362,234.054 92.726 C 233.805 93.118,233.392 92.863,232.438 91.726 C 231.732 90.887,231.331 90.560,231.545 91.000 M267.622 93.000 C 267.616 93.220,267.871 94.120,268.188 95.000 C 268.505 95.880,268.773 96.306,268.782 95.946 C 268.792 95.586,268.537 94.686,268.216 93.946 C 267.894 93.206,267.627 92.780,267.622 93.000 M268.080 102.680 C 267.488 104.609,267.775 104.895,268.400 103.000 C 268.664 102.201,268.802 101.469,268.707 101.374 C 268.612 101.278,268.330 101.866,268.080 102.680 M265.781 109.237 C 265.429 109.918,265.212 110.545,265.299 110.632 C 265.386 110.719,265.756 110.162,266.122 109.395 C 266.944 107.670,266.659 107.538,265.781 109.237 M202.349 113.000 C 202.565 113.440,203.034 114.160,203.393 114.600 L 204.044 115.400 203.651 114.600 C 203.435 114.160,202.966 113.440,202.607 113.000 L 201.956 112.200 202.349 113.000 M262.511 115.300 C 261.729 116.311,261.463 116.932,261.936 116.640 C 262.410 116.347,263.357 114.800,263.063 114.800 C 262.972 114.800,262.724 115.025,262.511 115.300 M260.550 118.300 C 259.367 119.925,259.002 120.752,259.977 119.600 C 260.878 118.534,261.719 117.200,261.489 117.200 C 261.413 117.200,260.990 117.695,260.550 118.300 M206.799 119.900 C 207.322 120.615,207.813 121.200,207.889 121.200 C 208.193 121.200,207.201 119.700,206.545 119.167 C 206.113 118.816,206.210 119.096,206.799 119.900 M254.744 125.900 C 253.593 127.289,253.106 128.000,253.304 128.000 C 253.414 128.000,253.986 127.370,254.573 126.600 C 255.663 125.171,255.795 124.632,254.744 125.900 M214.800 129.455 C 214.800 129.668,215.475 130.463,216.300 131.222 L 217.800 132.600 216.400 131.004 C 215.630 130.127,214.955 129.332,214.900 129.238 C 214.845 129.144,214.800 129.241,214.800 129.455 M245.595 135.900 L 239.400 142.200 245.700 136.005 C 251.553 130.249,252.181 129.600,251.895 129.600 C 251.837 129.600,249.002 132.435,245.595 135.900 M226.800 141.800 C 227.722 142.570,228.579 143.200,228.704 143.200 C 229.062 143.200,225.842 140.435,225.462 140.417 C 225.276 140.407,225.878 141.030,226.800 141.800 M237.775 143.300 L 236.600 144.600 237.900 143.425 C 238.615 142.779,239.200 142.194,239.200 142.125 C 239.200 141.816,238.870 142.088,237.775 143.300 M228.800 143.702 C 229.707 144.658,232.569 146.800,232.938 146.799 C 233.192 146.798,232.835 146.452,232.144 146.031 C 231.453 145.610,230.768 145.071,230.621 144.835 C 230.475 144.598,229.960 144.199,229.478 143.948 C 228.995 143.697,228.690 143.586,228.800 143.702 M158.046 177.024 C 158.021 177.696,158.283 178.596,158.630 179.024 C 158.976 179.451,159.121 179.536,158.953 179.214 C 158.784 178.891,158.521 177.991,158.369 177.214 C 158.093 175.808,158.092 175.807,158.046 177.024 M308.093 177.200 C 308.093 177.970,308.175 178.285,308.276 177.900 C 308.376 177.515,308.376 176.885,308.276 176.500 C 308.175 176.115,308.093 176.430,308.093 177.200 M306.914 180.280 C 306.427 180.786,306.174 181.200,306.352 181.200 C 306.742 181.200,308.198 179.645,307.964 179.477 C 307.874 179.413,307.401 179.774,306.914 180.280 M161.600 181.758 C 162.490 182.304,170.361 182.362,233.200 182.288 L 303.800 182.204 233.000 182.002 C 194.060 181.891,161.840 181.653,161.400 181.472 C 160.960 181.292,161.050 181.421,161.600 181.758 M197.932 202.300 C 217.584 202.357,249.624 202.357,269.132 202.300 C 288.639 202.243,272.560 202.196,233.400 202.196 C 194.240 202.196,178.279 202.243,197.932 202.300 M158.414 205.574 C 157.829 206.668,157.922 208.464,158.613 209.376 C 158.936 209.804,159.200 209.949,159.200 209.700 C 159.200 209.451,159.020 209.136,158.800 209.000 C 158.277 208.677,158.286 206.560,158.814 205.574 C 159.042 205.148,159.138 204.800,159.028 204.800 C 158.918 204.800,158.642 205.148,158.414 205.574 M308.093 207.200 C 308.093 207.970,308.175 208.285,308.276 207.900 C 308.376 207.515,308.376 206.885,308.276 206.500 C 308.175 206.115,308.093 206.430,308.093 207.200 M180.330 232.700 C 190.302 232.759,206.502 232.759,216.330 232.700 C 226.159 232.640,218.000 232.592,198.200 232.592 C 178.400 232.592,170.359 232.640,180.330 232.700 M238.032 238.778 C 238.014 239.096,237.509 239.906,236.909 240.578 L 235.818 241.800 237.157 240.544 C 237.900 239.848,238.400 239.046,238.280 238.744 C 238.105 238.306,238.057 238.313,238.032 238.778 M180.330 242.700 C 190.302 242.759,206.502 242.759,216.330 242.700 C 226.159 242.640,218.000 242.592,198.200 242.592 C 178.400 242.592,170.359 242.640,180.330 242.700 M172.328 281.100 C 178.118 281.162,187.478 281.162,193.128 281.100 C 198.778 281.037,194.040 280.986,182.600 280.986 C 171.160 280.986,166.538 281.037,172.328 281.100 M274.100 281.100 C 279.765 281.162,289.035 281.162,294.700 281.100 C 300.365 281.037,295.730 280.986,284.400 280.986 C 273.070 280.986,268.435 281.037,274.100 281.100 M158.249 284.615 C 158.112 284.973,158.021 285.746,158.046 286.333 C 158.080 287.132,158.170 286.998,158.404 285.800 C 158.735 284.100,158.662 283.540,158.249 284.615 M259.693 286.000 C 259.693 286.770,259.775 287.085,259.876 286.700 C 259.976 286.315,259.976 285.685,259.876 285.300 C 259.775 284.915,259.693 285.230,259.693 286.000 M308.093 286.000 C 308.093 286.770,308.175 287.085,308.276 286.700 C 308.376 286.315,308.376 285.685,308.276 285.300 C 308.175 284.915,308.093 285.230,308.093 286.000 M306.976 289.240 C 306.826 289.481,306.141 289.924,305.452 290.224 C 304.757 290.526,304.502 290.776,304.878 290.784 C 305.507 290.799,308.135 288.841,307.524 288.813 C 307.372 288.806,307.125 288.998,306.976 289.240 M236.294 307.896 C 235.582 308.683,235.954 313.829,237.195 320.376 C 238.527 327.395,236.370 332.713,231.055 335.516 L 229.000 336.600 158.720 336.800 C 109.066 336.941,88.313 337.127,88.007 337.433 C 87.421 338.019,87.879 339.075,88.828 339.323 C 89.281 339.442,89.600 339.872,89.600 340.363 C 89.600 340.989,89.852 341.200,90.600 341.200 C 91.400 341.200,91.600 341.400,91.600 342.200 C 91.600 343.000,91.800 343.200,92.600 343.200 C 93.283 343.200,93.602 343.422,93.606 343.900 C 93.611 344.457,93.684 344.486,93.963 344.046 C 94.248 343.596,94.453 343.653,95.046 344.346 C 95.467 344.837,96.249 345.200,96.889 345.200 C 97.500 345.200,97.979 345.335,97.953 345.500 C 97.809 346.408,98.063 346.861,98.600 346.655 C 98.930 346.529,99.200 346.599,99.200 346.813 C 99.200 347.026,99.335 347.179,99.500 347.153 C 100.686 346.965,101.535 347.308,101.729 348.052 C 101.876 348.612,102.161 348.824,102.563 348.669 C 102.899 348.540,103.278 348.603,103.406 348.809 C 103.730 349.333,280.137 349.329,282.014 348.805 C 284.527 348.103,283.951 346.869,280.800 346.203 C 279.864 346.005,278.493 345.415,278.000 344.997 C 277.670 344.718,276.854 344.373,276.187 344.232 C 275.519 344.090,274.456 343.530,273.825 342.987 C 273.193 342.444,272.428 342.000,272.125 342.000 C 271.823 342.000,271.471 341.730,271.345 341.400 C 271.218 341.070,270.901 340.800,270.641 340.800 C 269.618 340.800,260.000 330.895,260.000 329.841 C 260.000 329.640,259.550 328.886,259.000 328.164 C 258.450 327.443,257.999 326.616,257.999 326.327 C 257.998 326.037,257.666 325.258,257.262 324.595 C 255.640 321.934,254.624 318.494,253.780 312.802 C 253.520 311.046,251.908 308.683,250.486 307.974 C 248.546 307.007,237.155 306.944,236.294 307.896 " stroke="none" fill="#ecd4d2" fill-rule="evenodd"></path></g></svg>